<?xml version="1.0" encoding="UTF-8"?>
<svg width="512" height="512" viewBox="0 0 512 512" fill="none" xmlns="http://www.w3.org/2000/svg">
  <rect width="512" height="512" fill="#ffffff"/>
  <path d="M256 128C256 128 192 192 192 256C192 320 256 384 256 384C256 384 320 320 320 256C320 192 256 128 256 128Z" fill="#000000"/>
  <path d="M192 256C192 256 128 192 128 128C128 64 192 0 192 0C192 0 256 64 256 128C256 192 192 256 192 256Z" fill="#000000"/>
  <path d="M320 256C320 256 384 192 384 128C384 64 320 0 320 0C320 0 256 64 256 128C256 192 320 256 320 256Z" fill="#000000"/>
  <path d="M192 256C192 256 128 320 128 384C128 448 192 512 192 512C192 512 256 448 256 384C256 320 192 256 192 256Z" fill="#000000"/>
  <path d="M320 256C320 256 384 320 384 384C384 448 320 512 320 512C320 512 256 448 256 384C256 320 320 256 320 256Z" fill="#000000"/>
</svg> 